<?xml version="1.0" standalone="no"?>
<!DOCTYPE svg PUBLIC "-//W3C//DTD SVG 20010904//EN"
 "http://www.w3.org/TR/2001/REC-SVG-20010904/DTD/svg10.dtd">
<svg version="1.0" xmlns="http://www.w3.org/2000/svg"
 width="300.000000pt" height="263.000000pt" viewBox="0 0 300.000000 263.000000"
 preserveAspectRatio="xMidYMid meet">
<metadata>
Created by potrace 1.13, written by Peter Selinger 2001-2015
</metadata>
<g transform="translate(0.000000,263.000000) scale(0.100000,-0.100000)"
fill="#000000" stroke="none">
<path d="M1365 2278 c-16 -6 -42 -20 -58 -30 -28 -20 -67 -85 -67 -113 0 -13
-19 -15 -125 -15 l-125 0 0 -405 0 -405 30 0 c28 0 30 -3 30 -35 0 -31 3 -35
25 -35 l25 0 0 -100 0 -100 55 0 55 0 0 -55 c0 -42 3 -55 15 -55 11 0 15 -11
15 -40 0 -33 3 -40 20 -40 17 0 20 7 20 39 0 30 4 40 20 44 17 4 20 14 20 56
l0 51 55 0 55 0 0 100 0 100 25 0 c22 0 25 4 25 35 0 32 2 35 30 35 l30 0 0
405 0 405 -130 0 c-143 0 -145 1 -110 58 27 44 98 76 149 67 76 -14 125 -66
150 -161 24 -91 110 -168 202 -180 l49 -7 0 -263 0 -264 365 0 365 0 0 425 0
425 -365 0 -365 0 0 -140 c0 -156 3 -151 -73 -128 -58 17 -122 82 -137 138
-40 151 -156 230 -275 188z m1155 -293 l0 -185 -305 0 -305 0 0 185 0 185 305
0 305 0 0 -185z"/>
<path d="M530 1120 l0 -720 980 0 980 0 0 450 0 450 -70 0 -70 0 0 -375 0
-375 -840 0 -840 0 0 565 0 565 125 0 125 0 0 80 0 80 -195 0 -195 0 0 -720z"/>
<path d="M1610 1760 l0 -80 90 0 90 0 0 80 0 80 -90 0 -90 0 0 -80z"/>
<path d="M750 740 l0 -120 760 0 761 0 -3 118 -3 117 -445 3 -446 2 -34 -35
c-28 -29 -41 -35 -75 -35 -34 0 -47 6 -75 35 l-34 35 -203 0 -203 0 0 -120z"/>
</g>
</svg>
