<?xml version="1.0" encoding="iso-8859-1"?>
<!-- Generator: Adobe Illustrator 19.0.0, SVG Export Plug-In . SVG Version: 6.00 Build 0)  -->
<svg version="1.1" id="Layer_1" xmlns="http://www.w3.org/2000/svg" xmlns:xlink="http://www.w3.org/1999/xlink" x="0px" y="0px"
	 viewBox="0 0 512 512" style="enable-background:new 0 0 512 512;" xml:space="preserve">
<g>
	<g>
		<path d="M300.691,208.558c-15.599,0-28.289,12.69-28.289,28.289c0,15.599,12.69,28.289,28.289,28.289
			c15.598,0,28.289-12.69,28.289-28.289S316.29,208.558,300.691,208.558z M300.691,244.737c-4.351,0-7.89-3.539-7.89-7.89
			s3.54-7.89,7.89-7.89c4.35,0,7.89,3.539,7.89,7.89S305.042,244.737,300.691,244.737z"/>
	</g>
</g>
<g>
	<g>
		<path d="M492.224,56.395h-60.652c-5.633,0-10.199,4.566-10.199,10.199v12.146h-28.108c-5.633,0-10.199,4.566-10.199,10.199v31.921
			c0,5.633,4.566,10.199,10.199,10.199h28.108v66.856h-59.407v-16.401c0-5.633-4.566-10.199-10.199-10.199h-6.825v-22.787
			c0-5.633-4.566-10.199-10.199-10.199h-68.101c-5.633,0-10.199,4.566-10.199,10.199v22.787h-6.826
			c-5.633,0-10.199,4.566-10.199,10.199v16.402h-75.368v-49.83h56.837c5.633,0,10.199-4.566,10.199-10.199v-32.986
			c0-39.128-29.255-71.532-67.036-76.541V10.199C164.048,4.566,159.482,0,153.849,0H19.776C14.143,0,9.577,4.566,9.577,10.199
			v470.32c0,5.633,4.566,10.199,10.199,10.199h19.595v11.082c0,5.633,4.566,10.199,10.199,10.199
			c5.633,0,10.199-4.566,10.199-10.199v-11.082h94.521v11.082c0,5.633,4.566,10.199,10.199,10.199
			c5.633,0,10.199-4.566,10.199-10.199v-11.082h279.67v11.082c0,5.633,4.566,10.199,10.199,10.199
			c5.633,0,10.199-4.566,10.199-10.199v-11.082h17.466c5.633,0,10.199-4.566,10.199-10.199V66.595
			C502.423,60.962,497.857,56.395,492.224,56.395z M164.048,48.982c26.489,4.819,46.638,28.061,46.638,55.92v22.787h-46.638V48.982z
			 M403.464,110.663V99.14h17.909v11.523H403.464z M276.84,158.728h47.703v12.588H276.84V158.728z M259.814,191.714h81.753v91.329
			h-81.753V191.714z M164.048,218.316h75.368v17.909h-75.368V218.316z M29.975,20.398h113.675v250.94h-0.001H29.975V20.398z
			 M187.278,293.242V470.32h-0.001H29.975V291.737H153.85c5.633,0,10.199-4.566,10.199-10.199v-24.916h75.368v26.421h-41.94
			C191.844,283.043,187.278,287.609,187.278,293.242z M422.437,470.32H207.675v-13.652h214.762V470.32z M422.437,436.27H207.675
			v-24.292h214.762V436.27z M422.437,391.579H207.675v-43.446h214.762V391.579z M422.437,327.734H207.675v-24.292h214.762V327.734z
			 M482.025,470.32h-39.189V293.242h0c0-5.633-4.566-10.199-10.199-10.199h-70.67v-26.421h120.059V470.32z M482.025,236.225H361.966
			v-17.909h120.059V236.225z M482.025,197.917h-40.253V76.794h40.253V197.917z"/>
	</g>
</g>
<g>
	<g>
		<path d="M67.127,30.858c-14.718,0-26.692,11.974-26.692,26.692c0,14.718,11.974,26.692,26.692,26.692S93.819,72.268,93.819,57.55
			C93.819,42.832,81.845,30.858,67.127,30.858z M67.127,63.844c-3.471,0-6.294-2.823-6.294-6.294c0-3.471,2.823-6.294,6.294-6.294
			c3.471,0,6.294,2.823,6.294,6.294C73.421,61.021,70.598,63.844,67.127,63.844z"/>
	</g>
</g>
<g>
	<g>
		<path d="M106.498,205.366c-14.718,0-26.692,11.974-26.692,26.692c0,14.718,11.974,26.692,26.692,26.692
			s26.692-11.974,26.692-26.692C133.19,217.34,121.216,205.366,106.498,205.366z M106.498,238.352c-3.471,0-6.294-2.823-6.294-6.294
			c0-3.471,2.824-6.294,6.294-6.294s6.294,2.823,6.294,6.294C112.792,235.529,109.969,238.352,106.498,238.352z"/>
	</g>
</g>
<g>
	<g>
		<path d="M106.498,139.394c-14.718,0-26.692,11.974-26.692,26.692s11.974,26.692,26.692,26.692s26.692-11.974,26.692-26.692
			C133.19,151.367,121.216,139.394,106.498,139.394z M106.498,172.38c-3.471,0-6.294-2.824-6.294-6.294s2.824-6.294,6.294-6.294
			s6.294,2.823,6.294,6.294C112.792,169.557,109.969,172.38,106.498,172.38z"/>
	</g>
</g>
<g>
	<g>
		<path d="M50.634,314.966c-5.633,0-10.199,4.566-10.199,10.199v5.321c0,5.633,4.566,10.199,10.199,10.199
			c5.633,0,10.199-4.566,10.199-10.199v-5.321C60.833,319.532,56.267,314.966,50.634,314.966z"/>
	</g>
</g>
<g>
	<g>
		<path d="M50.634,353.272c-5.633,0-10.199,4.566-10.199,10.199v86.19c0,5.633,4.566,10.199,10.199,10.199
			c5.633,0,10.199-4.566,10.199-10.199v-86.19C60.833,357.838,56.267,353.272,50.634,353.272z"/>
	</g>
</g>
<g>
</g>
<g>
</g>
<g>
</g>
<g>
</g>
<g>
</g>
<g>
</g>
<g>
</g>
<g>
</g>
<g>
</g>
<g>
</g>
<g>
</g>
<g>
</g>
<g>
</g>
<g>
</g>
<g>
</g>
</svg>
