<?xml version="1.0" encoding="utf-8"?>
<!-- Generator: Adobe Illustrator 20.1.0, SVG Export Plug-In . SVG Version: 6.00 Build 0)  -->
<svg version="1.1" id="Layer_1" xmlns="http://www.w3.org/2000/svg" xmlns:xlink="http://www.w3.org/1999/xlink" x="0px" y="0px"
	 viewBox="0 0 650 350" style="enable-background:new 0 0 650 350;" xml:space="preserve">
<style type="text/css">
	.st0{fill:#FFFFFF;}
</style>
<g>
	<path class="st0" d="M60.1,114.5h21.4l13.2,21.6l13.2-21.6h21.4V176h-20.5v-30.5l-14.2,21.9h-0.4l-14.2-21.9V176H60.1V114.5z"/>
	<path class="st0" d="M134,162.4v-0.2c0-9.6,7.1-14.9,18.3-14.9c4,0,9.2,0.9,11.3,1.8v-0.8c0-4.4-2.7-6.9-8.9-6.9
		c-4.9,0-9.1,1.1-13.3,2.7l-3.5-13.3c5.5-2.1,11.9-3.5,20.2-3.5c9.8,0,16.1,2,20.3,6.2c3.6,3.6,5,8.3,5,15.2V176h-20v-4.8
		c-3.3,3.6-7.8,6-13.8,6C140.5,177.1,134,171.9,134,162.4z M163.8,158.2v-2c-1.1-0.4-2.9-0.8-4.6-0.8c-4,0-6.2,2.4-6.2,5.4v0.2
		c0,2.8,2,4.7,4.6,4.7C161.2,165.6,163.8,162.8,163.8,158.2z"/>
	<path class="st0" d="M189.1,111.8h20v30.9l10.3-14.8h21.7l-15,19.5l15.3,28.5H220l-6.9-13.2l-4,5.1v8.1h-20V111.8z"/>
	<path class="st0" d="M238.5,152.3v-0.2c0-14.3,10.3-25.2,24.7-25.2c17.1,0,25,11.9,25,26.5c0,1.1,0,2.3-0.1,3.3h-30.9
		c1.4,4.2,4.7,6.4,9.1,6.4c3.6,0,6.6-1.7,9.8-4.9l10.7,8.5c-4.7,6.2-11.5,10.5-21.9,10.5C249.2,177.1,238.5,167.2,238.5,152.3z
		 M270,147.9c-0.4-4.6-3.2-7.2-6.7-7.2c-3.3,0-5.7,2.8-6.3,7.2H270z"/>
	<path class="st0" d="M292.6,128h20v9.7c2.7-6.5,7.1-10.7,15-10.4v21.2h-2.1c-8.4,0-12.9,4.7-12.9,15.3V176h-20V128z"/>
	<path class="st0" d="M333.2,167l3-3.4c6.8,6.2,13,9.1,22.1,9.1c9.2,0,15.6-5.2,15.6-12.2v-0.2c0-6.5-3.4-10.3-17.4-13.1
		c-14.8-3-20.7-8-20.7-17.3v-0.2c0-9.1,8.4-16.2,19.8-16.2c9,0,14.9,2.5,21.1,7.5l-2.9,3.6c-5.8-5-11.6-6.9-18.4-6.9
		c-9.1,0-15,5.2-15,11.6v0.2c0,6.5,3.3,10.5,17.9,13.4c14.2,2.9,20.2,8,20.2,17v0.2c0,9.9-8.5,16.8-20.4,16.8
		C348.1,176.9,340.6,173.6,333.2,167z"/>
	<path class="st0" d="M392.4,131.2h4.3v10c3.9-5.9,9.6-11.1,18.5-11.1c10.8,0,21.8,8.7,21.8,23.3v0.2c0,14.6-11,23.5-21.8,23.5
		c-9,0-14.8-5.1-18.5-10.7v23.7h-4.3V131.2z M432.3,153.8v-0.2c0-11.8-8.2-19.3-17.6-19.3c-9.3,0-18.3,7.8-18.3,19.3v0.2
		c0,11.5,9,19.3,18.3,19.3C424.5,172.9,432.3,165.8,432.3,153.8z"/>
	<path class="st0" d="M446.8,163v-0.2c0-9.3,8-14.6,19.6-14.6c6.2,0,10.5,0.8,14.9,1.9v-1.9c0-9.1-5.5-13.7-14.8-13.7
		c-5.5,0-9.9,1.5-14.1,3.6l-1.6-3.8c4.9-2.3,9.8-3.9,15.9-3.9c6.1,0,10.9,1.7,14.2,4.9c3,3,4.6,7.1,4.6,12.7v28h-4.2v-7.5
		c-3.1,4.3-8.6,8.5-17.1,8.5C455.7,177.1,446.8,172.3,446.8,163z M481.3,159.2v-5.1c-3.8-1-8.8-2-15.2-2c-9.5,0-14.8,4.2-14.8,10.5
		v0.2c0,6.5,6.2,10.3,13,10.3C473.5,173,481.3,167.4,481.3,159.2z"/>
	<path class="st0" d="M497.8,153.8v-0.2c0-12.6,10-23.5,22.9-23.5c8.4,0,13.7,3.9,17.9,8.3l-3.1,3.2c-3.9-4-8.3-7.4-14.9-7.4
		c-10.2,0-18.1,8.5-18.1,19.3v0.2c0,10.8,8.2,19.4,18.5,19.4c6.3,0,11.3-3.3,15-7.5l3,2.6c-4.6,5.2-10,8.9-18.3,8.9
		C507.8,177.1,497.8,166.3,497.8,153.8z"/>
	<path class="st0" d="M546.7,153.7v-0.2c0-13,9.1-23.4,21.3-23.4c12.6,0,20.6,10.2,20.6,23.5c0,0.8,0,1.1-0.1,1.8h-37.2
		c0.8,11.2,8.8,17.7,17.6,17.7c6.9,0,11.7-3.1,15.4-7l3,2.6c-4.6,4.9-9.9,8.4-18.5,8.4C556.9,177.1,546.7,167.7,546.7,153.7z
		 M583.9,151.5c-0.6-9.1-5.8-17.4-16.1-17.4c-8.9,0-15.7,7.5-16.5,17.4H583.9z"/>
</g>
</svg>
