<?xml version="1.0" encoding="iso-8859-1"?>
<!-- Generator: Adobe Illustrator 16.0.0, SVG Export Plug-In . SVG Version: 6.00 Build 0)  -->
<!DOCTYPE svg PUBLIC "-//W3C//DTD SVG 1.1//EN" "http://www.w3.org/Graphics/SVG/1.1/DTD/svg11.dtd">
<svg version="1.1" id="Capa_1" xmlns="http://www.w3.org/2000/svg" xmlns:xlink="http://www.w3.org/1999/xlink" x="0px" y="0px"
	 width="49.336px" height="49.336px" viewBox="0 0 49.336 49.336" style="enable-background:new 0 0 49.336 49.336;"
	 xml:space="preserve">
<g>
	<g id="_x31_0_11_">
		<g>
			<path d="M13.411,20.815c0.02,0.291,0.064,0.575,0.137,0.85c-0.337,0.286-1.011,0.857-1.011,0.857v1.237l1.753,2.07
				c0,0,1.02,0.121,1.074,0.091c0.054-0.029,0.164-0.091,0.164-0.091s0.641-0.542,0.961-0.813c0.271,0.121,0.552,0.223,0.845,0.301
				c0.033,0.365,0.1,1.092,0.1,1.092l0.875,0.875l2.699-0.246l0.875-0.875c0,0-0.085-0.938-0.127-1.406
				c0.221-0.127,0.433-0.265,0.632-0.418c0.352,0.203,1.054,0.609,1.054,0.609l1.197-0.314l1.358-2.348l-0.313-1.197
				c0,0-0.905-0.523-1.356-0.785c-0.012-0.261-0.04-0.518-0.094-0.768c0.358-0.307,1.076-0.921,1.076-0.921v-1.237l-1.768-2.06
				h-1.238c0,0-0.587,0.503-0.88,0.754c-0.318-0.155-0.654-0.281-1.006-0.376c-0.028-0.349-0.085-1.048-0.085-1.048l-0.875-0.875
				l-2.703,0.22l-0.875,0.875c0,0,0.074,0.917,0.11,1.376c-0.265,0.151-0.515,0.321-0.747,0.51c-0.38-0.174-1.142-0.522-1.142-0.522
				l-1.197,0.314l-1.132,2.468l-0.04,0.167l0.354,1.03C12.086,20.21,12.969,20.614,13.411,20.815z M18.719,17.799
				c1.508,0,2.729,1.222,2.729,2.729c0,1.507-1.222,2.729-2.729,2.729c-1.507,0-2.729-1.222-2.729-2.729
				C15.99,19.021,17.212,17.799,18.719,17.799z"/>
			<path d="M27.355,24.406c0.008,0.129,0.027,0.256,0.061,0.378c-0.15,0.127-0.45,0.381-0.45,0.381v0.55l0.78,0.921
				c0,0,0.454,0.054,0.479,0.041c0.023-0.014,0.072-0.041,0.072-0.041s0.285-0.241,0.428-0.362c0.12,0.055,0.245,0.1,0.377,0.135
				c0.015,0.162,0.043,0.486,0.043,0.486l0.391,0.389l1.201-0.109l0.389-0.39c0,0-0.037-0.417-0.057-0.625
				c0.099-0.058,0.192-0.118,0.281-0.187c0.155,0.09,0.469,0.271,0.469,0.271l0.533-0.141l0.604-1.045l-0.141-0.531
				c0,0-0.402-0.233-0.604-0.35c-0.005-0.116-0.019-0.229-0.041-0.342c0.159-0.137,0.478-0.41,0.478-0.41v-0.55l-0.785-0.917h-0.551
				c0,0-0.262,0.224-0.392,0.335c-0.142-0.069-0.291-0.125-0.448-0.167c-0.012-0.155-0.037-0.466-0.037-0.466l-0.39-0.389
				l-1.202,0.098l-0.39,0.389c0,0,0.032,0.408,0.049,0.613c-0.117,0.067-0.229,0.143-0.332,0.227
				c-0.169-0.078-0.508-0.232-0.508-0.232l-0.533,0.14l-0.503,1.098l-0.02,0.074l0.158,0.458
				C26.766,24.137,27.156,24.316,27.355,24.406z M29.716,23.064c0.671,0,1.214,0.543,1.214,1.214c0,0.67-0.543,1.214-1.214,1.214
				s-1.214-0.543-1.214-1.214C28.502,23.607,29.045,23.064,29.716,23.064z"/>
			<path d="M32.881,18.644c0.012,0.16,0.035,0.317,0.075,0.469c-0.187,0.158-0.558,0.473-0.558,0.473v0.682l0.967,1.141
				c0,0,0.562,0.066,0.592,0.05c0.029-0.017,0.091-0.05,0.091-0.05s0.354-0.299,0.53-0.448c0.148,0.066,0.304,0.123,0.466,0.166
				c0.019,0.201,0.054,0.602,0.054,0.602l0.483,0.482l1.487-0.136l0.481-0.482c0,0-0.046-0.517-0.069-0.775
				c0.123-0.07,0.239-0.146,0.349-0.23c0.194,0.112,0.581,0.336,0.581,0.336l0.66-0.173l0.75-1.295l-0.174-0.659
				c0,0-0.5-0.289-0.748-0.433c-0.008-0.144-0.022-0.286-0.051-0.424c0.196-0.169,0.592-0.508,0.592-0.508V16.75l-0.975-1.136
				h-0.684c0,0-0.323,0.277-0.484,0.416c-0.175-0.085-0.359-0.155-0.555-0.208c-0.016-0.192-0.047-0.578-0.047-0.578l-0.482-0.482
				l-1.488,0.121l-0.483,0.482c0,0,0.04,0.506,0.061,0.76c-0.146,0.083-0.282,0.177-0.411,0.281c-0.209-0.096-0.63-0.288-0.63-0.288
				l-0.659,0.173l-0.623,1.361l-0.023,0.092l0.195,0.567C32.15,18.31,32.637,18.533,32.881,18.644z M35.809,16.981
				c0.83,0,1.504,0.673,1.504,1.505c0,0.831-0.674,1.504-1.504,1.504c-0.832,0-1.506-0.673-1.506-1.504
				C34.303,17.654,34.977,16.981,35.809,16.981z"/>
			<path d="M0,4.301v32.532h17.69v6.698h13.349v-6.698h18.297V4.301H0z M44.336,31.833H5V9.301h39.336V31.833z"/>
			<rect x="10.503" y="43.658" width="27.724" height="1.377"/>
		</g>
	</g>
</g>
<g>
</g>
<g>
</g>
<g>
</g>
<g>
</g>
<g>
</g>
<g>
</g>
<g>
</g>
<g>
</g>
<g>
</g>
<g>
</g>
<g>
</g>
<g>
</g>
<g>
</g>
<g>
</g>
<g>
</g>
</svg>
